/* XPM */
static char *close_pressed[] = {
/* columns rows colors chars-per-pixel */
"34 26 25 1 ",
"  c #124D4D",
". c #3F6F6F",
"X c #3F7070",
"o c #799A9A",
"O c #7C9E9E",
"+ c #7D9E9E",
"@ c #BFD0D0",
"# c #C1D1D1",
"$ c #C4D3D3",
"% c #C4D4D4",
"& c #CAD7D7",
"* c #CFDBDB",
"= c #CFDCDC",
"- c #D0DDDD",
"; c #D8E2E2",
": c #D9E3E3",
"> c #DCE6E6",
", c #DEE8E8",
"< c #EBF1F1",
"1 c #ECF2F2",
"2 c #EEF4F4",
"3 c #EFF5F5",
"4 c #F4F8F8",
"5 c #F7FAFA",
"6 c #F8FBFB",
/* pixels */
"6666666666662>=&%%&=>2666666666666",
"6666666666<*##########=<6666666666",
"666666665;##############;566666666",
"66666664*################=46666666",
"6666665=##################=5666666",
"666666;####################:666666",
"666661######################<66666",
"66666=######################=66666",
"66662########@######@########26666",
"6666>#######@.O####O.@#######,6666",
"6666=########+ o##+ o########=6666",
"6666&#########+ o+ o#########&6666",
"6666$##########O  O##########$6666",
"6666$##########O  O##########$6666",
"6666&#########+ o+ o#########&6666",
"6666=########+ o##+ o########=6666",
"6666>#######@XO####O.@#######,6666",
"66663########@######@########26666",
"66666=######################=66666",
"666661######################166666",
"666666;####################:666666",
"6666666-##################=5666666",
"66666664=################=46666666",
"666666665;##############:566666666",
"66666666662-##########=16666666666",
"6666666666662,=&$$&=,3666666666666"
};
