/* XPM */
static char *hide_pressed[] = {
/* columns rows colors chars-per-pixel */
"34 34 25 1 ",
"  c #082626",
". c #BDC8C8",
"X c #BEC9C9",
"o c #BFCACA",
"O c #C0CACA",
"+ c #C0CBCB",
"@ c #C4CECE",
"# c #C7D0D0",
"$ c #C7D1D1",
"% c #C9D3D3",
"& c #CAD3D3",
"* c #CDD6D6",
"= c #CDD7D7",
"- c #CED6D6",
"; c #CED8D8",
": c #D0D9D9",
"> c #D1D9D9",
", c #D2DADA",
"< c #D3DBDB",
"1 c #D5DDDD",
"2 c #D6DEDE",
"3 c #D9E1E1",
"4 c #DAE1E1",
"5 c #DAE2E2",
"6 c #DDE4E4",
/* pixels */
"666666666665>%@+XX+@%>566666666666",
"6666666661#X..........X$1666666666",
"66666663#................$36666666",
"666666,o..................o,666666",
"66666=......................-66666",
"6666*........................=6666",
"666,..........................,666",
"663o..........................o366",
"66#............................$66",
"62..............................16",
"6#..............................$6",
"5X..............................X4",
":................................>",
"%................................%",
"@................................@",
"+................................O",
"X................................X",
"X................................X",
"+................................O",
"@............        ............@",
"%................................&",
">................................>",
"5X..............................X4",
"6$..............................$6",
"62..............................16",
"66#............................$66",
"663o..........................o466",
"666,..........................<666",
"6666=........................=6666",
"66666;......................-66666",
"666666,o..................o<666666",
"66666663$................$46666666",
"6666666661$X..........X$2666666666",
"666666666664>%@+XX+@%>466666666666"
};
