/* XPM */
static char *close_pressed[] = {
/* columns rows colors chars-per-pixel */
"34 26 21 1 ",
"  c #000101",
". c #082121",
"X c #092222",
"o c #134A4A",
"O c #144D4D",
"+ c #144E4E",
"@ c #207D7D",
"# c #207E7E",
"$ c #218080",
"% c #228383",
"& c #238787",
"* c #238888",
"= c #258E8E",
"- c #259191",
"; c #259393",
": c #289C9C",
"> c #289D9D",
", c #289E9E",
"< c #2AA2A2",
"1 c #2AA3A3",
"2 c #2AA4A4",
/* pixels */
"222222222222>-&%$$%&->222222222222",
"2222222222:&##########&:2222222222",
"222222221=##############=122222222",
"2222222<&################&<2222222",
"2222221&##################&1222222",
"222222=####################=222222",
"22222>######################:22222",
"22222&######################&22222",
"2222>########@######@########>2222",
"2222-#######@.O####O.@#######;2222",
"2222&########+ o##+ o########&2222",
"2222%#########+ o+ o#########%2222",
"2222$##########O  O##########$2222",
"2222$##########O  O##########$2222",
"2222%#########+ o+ o#########%2222",
"2222&########+ o##+ o########&2222",
"2222-#######@XO####O.@#######;2222",
"2222,########@######@########>2222",
"22222&######################&22222",
"22222>######################>22222",
"222222=####################=222222",
"2222222*##################&1222222",
"2222222<&################&<2222222",
"222222221=##############=122222222",
"2222222222>*##########&>2222222222",
"222222222222>;&%$$%&;,222222222222"
};
