/* XPM */
static char *close_inactive[] = {
/* columns rows colors chars-per-pixel */
"34 26 18 1 ",
"  c #2C3F3F",
". c #416060",
"X c #426060",
"o c #5E8B8B",
"O c #608D8D",
"+ c #618E8E",
"@ c #82BEBE",
"# c #83C0C0",
"$ c #84C1C1",
"% c #84C2C2",
"& c #85C3C3",
"* c #86C3C3",
"= c #87C6C6",
"- c #88C7C7",
"; c #89C8C8",
": c #8BCBCB",
"> c #8CCCCC",
", c #8DCECE",
/* pixels */
",,,,,,,,,,,,>-*%$$%*->,,,,,,,,,,,,",
",,,,,,,,,,:&##########*:,,,,,,,,,,",
",,,,,,,,,=##############=,,,,,,,,,",
",,,,,,,>&################*>,,,,,,,",
",,,,,,,*##################*,,,,,,,",
",,,,,,=####################=,,,,,,",
",,,,,:######################:,,,,,",
",,,,,*######################*,,,,,",
",,,,>########@######@########>,,,,",
",,,,-#######@.O####O.@#######;,,,,",
",,,,*########+ o##+ o########*,,,,",
",,,,%#########+ o+ o#########%,,,,",
",,,,$##########O  O##########$,,,,",
",,,,$##########O  O##########$,,,,",
",,,,%#########+ o+ o#########%,,,,",
",,,,*########+ o##+ o########*,,,,",
",,,,-#######@XO####O.@#######;,,,,",
",,,,>########@######@########>,,,,",
",,,,,*######################*,,,,,",
",,,,,:######################:,,,,,",
",,,,,,=####################=,,,,,,",
",,,,,,,*##################*,,,,,,,",
",,,,,,,>*################*>,,,,,,,",
",,,,,,,,,=##############=,,,,,,,,,",
",,,,,,,,,,>*##########*:,,,,,,,,,,",
",,,,,,,,,,,,>;*%$$%*;>,,,,,,,,,,,,"
};
