/* XPM */
static char *close_prelight[] = {
/* columns rows colors chars-per-pixel */
"34 34 22 1 ",
"  c #000202",
". c #0A2727",
"X c #165757",
"o c #175B5B",
"O c #269393",
"+ c #269494",
"@ c #269595",
"# c #279797",
"$ c #279898",
"% c #279999",
"& c #279A9A",
"* c #289A9A",
"= c #289C9C",
"- c #289D9D",
"; c #289E9E",
": c #299E9E",
"> c #299F9F",
", c #29A0A0",
"< c #29A1A1",
"1 c #2AA2A2",
"2 c #2AA3A3",
"3 c #2AA4A4",
/* pixels */
"333333333332;&#@@@@#&:233333333333",
"333333333,%++++++++++++%,333333333",
"33333331$++++++++++++++++%13333333",
"333333:@++++++++++++++++++@>333333",
"33333=++++++++++++++++++++++=33333",
"3333=++++++++++++++++++++++++=3333",
"333:++++++++++++++++++++++++++>333",
"331@++++++++++++++++++++++++++@133",
"33$++++++++++++++++++++++++++++%33",
"3,++++++++++++++++++++++++++++++,3",
"3%++++++++++++++++++++++++++++++%3",
"2++++++++++++++++++++++++++++++++2",
";++++++++++++O++++++O++++++++++++:",
"&+++++++++++O.o++++o.O+++++++++++*",
"#++++++++++++o X++o X++++++++++++#",
"@+++++++++++++o Xo X+++++++++++++@",
"@++++++++++++++o  o++++++++++++++@",
"@++++++++++++++o  o++++++++++++++@",
"@+++++++++++++o Xo X+++++++++++++@",
"#++++++++++++o X++o X++++++++++++#",
"&+++++++++++O.o++++o.O+++++++++++*",
";++++++++++++O++++++O++++++++++++:",
"2++++++++++++++++++++++++++++++++2",
"3%++++++++++++++++++++++++++++++%3",
"3<++++++++++++++++++++++++++++++,3",
"33%++++++++++++++++++++++++++++%33",
"331@++++++++++++++++++++++++++@133",
"333>++++++++++++++++++++++++++>333",
"3333=++++++++++++++++++++++++=3333",
"33333-++++++++++++++++++++++=33333",
"333333>@++++++++++++++++++@>333333",
"33333331%++++++++++++++++%13333333",
"333333333,%++++++++++++%<333333333",
"333333333332:*#@@@@#*:233333333333"
};
