/* XPM */
static char *close_pressed[] = {
/* columns rows colors chars-per-pixel */
"34 34 21 1 ",
"  c #000202",
". c #092525",
"X c #0A2525",
"o c #155252",
"O c #165656",
"+ c #248B8B",
"@ c #248C8C",
"# c #248D8D",
"$ c #259191",
"% c #269393",
"& c #269595",
"* c #279898",
"= c #279999",
"- c #289A9A",
"; c #289B9B",
": c #289C9C",
"> c #299E9E",
", c #299F9F",
"< c #29A1A1",
"1 c #2AA2A2",
"2 c #2AA4A4",
/* pixels */
"222222222221;&$#@@#$&;122222222222",
"222222222>%@@@@@@@@@@@@%>222222222",
"2222222<%@@@@@@@@@@@@@@@@%<2222222",
"222222:#@@@@@@@@@@@@@@@@@@#:222222",
"22222*@@@@@@@@@@@@@@@@@@@@@@*22222",
"2222*@@@@@@@@@@@@@@@@@@@@@@@@*2222",
"222:@@@@@@@@@@@@@@@@@@@@@@@@@@:222",
"22<#@@@@@@@@@@@@@@@@@@@@@@@@@@#<22",
"22%@@@@@@@@@@@@@@@@@@@@@@@@@@@@%22",
"2,@@@@@@@@@@@@@@@@@@@@@@@@@@@@@@>2",
"2%@@@@@@@@@@@@@@@@@@@@@@@@@@@@@@%2",
"1@@@@@@@@@@@@@@@@@@@@@@@@@@@@@@@@1",
"-@@@@@@@@@@@@+@@@@@@+@@@@@@@@@@@@;",
"&@@@@@@@@@@@+.O@@@@O.+@@@@@@@@@@@&",
"$@@@@@@@@@@@@O o@@O o@@@@@@@@@@@@$",
"#@@@@@@@@@@@@@O oO o@@@@@@@@@@@@@#",
"@@@@@@@@@@@@@@@O  O@@@@@@@@@@@@@@@",
"@@@@@@@@@@@@@@@O  O@@@@@@@@@@@@@@@",
"#@@@@@@@@@@@@@O oO o@@@@@@@@@@@@@#",
"$@@@@@@@@@@@@O o@@O o@@@@@@@@@@@@$",
"&@@@@@@@@@@@+XO@@@@O.+@@@@@@@@@@@&",
";@@@@@@@@@@@@+@@@@@@+@@@@@@@@@@@@;",
"1@@@@@@@@@@@@@@@@@@@@@@@@@@@@@@@@1",
"2%@@@@@@@@@@@@@@@@@@@@@@@@@@@@@@%2",
"2,@@@@@@@@@@@@@@@@@@@@@@@@@@@@@@>2",
"22%@@@@@@@@@@@@@@@@@@@@@@@@@@@@%22",
"22<#@@@@@@@@@@@@@@@@@@@@@@@@@@#<22",
"222:@@@@@@@@@@@@@@@@@@@@@@@@@@:222",
"2222*@@@@@@@@@@@@@@@@@@@@@@@@*2222",
"22222=@@@@@@@@@@@@@@@@@@@@@@*22222",
"222222:#@@@@@@@@@@@@@@@@@@#:222222",
"2222222<%@@@@@@@@@@@@@@@@%<2222222",
"222222222>%@@@@@@@@@@@@%,222222222",
"222222222221;&$#@@#$&;122222222222"
};
