/* XPM */
static char *hide_prelight[] = {
/* columns rows colors chars-per-pixel */
"34 34 18 1 ",
"  c black",
". c #269494",
"X c #269595",
"o c #279797",
"O c #279898",
"+ c #279999",
"@ c #279A9A",
"# c #289A9A",
"$ c #289C9C",
"% c #289D9D",
"& c #289E9E",
"* c #299E9E",
"= c #299F9F",
"- c #29A0A0",
"; c #29A1A1",
": c #2AA2A2",
"> c #2AA3A3",
", c #2AA4A4",
/* pixels */
",,,,,,,,,,,>&@oXXXXo@*>,,,,,,,,,,,",
",,,,,,,,,-+............+-,,,,,,,,,",
",,,,,,,:O................+:,,,,,,,",
",,,,,,*X..................X=,,,,,,",
",,,,,$......................$,,,,,",
",,,,$........................$,,,,",
",,,*..........................=,,,",
",,:X..........................X:,,",
",,O............................+,,",
",-..............................-,",
",+..............................+,",
">................................>",
"&................................*",
"@................................#",
"o................................o",
"X................................X",
"X................................X",
"X................................X",
"X................................X",
"o............        ............o",
"@................................#",
"&................................*",
">................................>",
",+..............................+,",
",;..............................-,",
",,+............................+,,",
",,:X..........................X:,,",
",,,=..........................=,,,",
",,,,$........................$,,,,",
",,,,,%......................$,,,,,",
",,,,,,=X..................X=,,,,,,",
",,,,,,,:+................+:,,,,,,,",
",,,,,,,,,-+............+;,,,,,,,,,",
",,,,,,,,,,,>*#oXXXXo#*>,,,,,,,,,,,"
};
