/* XPM */
static char *hide_inactive[] = {
/* columns rows colors chars-per-pixel */
"34 26 12 1 ",
"  c #2A3E3E",
". c #83C0C0",
"X c #84C1C1",
"o c #84C2C2",
"O c #85C3C3",
"+ c #86C3C3",
"@ c #87C6C6",
"# c #88C7C7",
"$ c #89C8C8",
"% c #8BCBCB",
"& c #8CCCCC",
"* c #8DCECE",
/* pixels */
"************&#+oXXo+#&************",
"**********%O..........+%**********",
"*********@..............@*********",
"*******&O................+&*******",
"*******+..................+*******",
"******@....................@******",
"*****%......................%*****",
"*****+......................+*****",
"****&........................&****",
"****#........................$****",
"****+........................+****",
"****o........................o****",
"****X........................X****",
"****X........................X****",
"****o........................o****",
"****+........        ........+****",
"****#........................$****",
"****&........................&****",
"*****+......................+*****",
"*****%......................%*****",
"******@....................@******",
"*******+..................+*******",
"*******&+................+&*******",
"*********@..............@*********",
"**********&+..........+%**********",
"************&$+oXXo+$&************"
};
