/* XPM */
static char *top_right_active[] = {
/* columns rows colors chars-per-pixel */
"8 38 4 1 ",
"  c None",
". c #29A3A3",
"X c #2AA4A4",
"o c #2BA4A4",
/* pixels */
"XXo     ",
"XXXoX   ",
"XXXXXX  ",
"XXXXXXX ",
"XXXXXXo ",
"XXXXXXX.",
"XXXXXXXX",
"XXXXXXXX",
"XXXXXXXX",
"XXXXXXXX",
"XXXXXXXX",
"XXXXXXXX",
"XXXXXXXX",
"XXXXXXXX",
"XXXXXXXX",
"XXXXXXXX",
"XXXXXXXX",
"XXXXXXXX",
"XXXXXXXX",
"XXXXXXXX",
"XXXXXXXX",
"XXXXXXXX",
"XXXXXXXX",
"XXXXXXXX",
"XXXXXXXX",
"XXXXXXXX",
"XXXXXXXX",
"XXXXXXXX",
"XXXXXXXX",
"XXXXXXXX",
"XXXXXXXX",
"XXXXXXXX",
"XXXXXXXX",
"XXXXXXXX",
"XXXXXXXX",
"XXXXXXXX",
"XXXXXXXX",
"XXXXXXXX"
};
