/* XPM */
static char *top_right_inactive[] = {
/* columns rows colors chars-per-pixel */
"8 38 6 1 ",
"  c None",
". c #8DCDCD",
"X c #8CCECE",
"o c #8DCECE",
"O c #8DCFCF",
"+ c #8ECFCF",
/* pixels */
"ooO     ",
"ooooo   ",
"oooooX  ",
"ooooooo ",
"ooooooo ",
"ooooooo+",
"ooooooo.",
"ooooooo.",
"oooooooo",
"oooooooo",
"oooooooo",
"oooooooo",
"oooooooo",
"oooooooo",
"oooooooo",
"oooooooo",
"oooooooo",
"oooooooo",
"oooooooo",
"oooooooo",
"oooooooo",
"oooooooo",
"oooooooo",
"oooooooo",
"oooooooo",
"oooooooo",
"oooooooo",
"oooooooo",
"oooooooo",
"oooooooo",
"oooooooo",
"oooooooo",
"oooooooo",
"oooooooo",
"oooooooo",
"oooooooo",
"oooooooo",
"oooooooo"
};
