/* XPM */
static char *top_left_inactive[] = {
/* columns rows colors chars-per-pixel */
"8 38 5 1 ",
"  c None",
". c #8ECDCD",
"X c #8CCECE",
"o c #8DCECE",
"O c #8DCFCF",
/* pixels */
"     Ooo",
"   ooooo",
"  Xooooo",
" ooooooo",
" ooooooo",
".ooooooo",
"oooooooo",
"oooooooo",
"oooooooo",
"oooooooo",
"oooooooo",
"oooooooo",
"oooooooo",
"oooooooo",
"oooooooo",
"oooooooo",
"oooooooo",
"oooooooo",
"oooooooo",
"oooooooo",
"oooooooo",
"oooooooo",
"oooooooo",
"oooooooo",
"oooooooo",
"oooooooo",
"oooooooo",
"oooooooo",
"oooooooo",
"oooooooo",
"oooooooo",
"oooooooo",
"oooooooo",
"oooooooo",
"oooooooo",
"oooooooo",
"oooooooo",
"oooooooo"
};
