/* XPM */
static char *top_left_active[] = {
/* columns rows colors chars-per-pixel */
"8 38 5 1 ",
"  c None",
". c #2AA4A4",
"X c #2BA4A4",
"o c #2AA5A5",
"O c #2BA5A5",
/* pixels */
"     X..",
"   oX...",
"  ......",
" o......",
" X......",
"O.......",
"........",
"........",
"........",
"........",
"........",
"........",
"........",
"........",
"........",
"........",
"........",
"........",
"........",
"........",
"........",
"........",
"........",
"........",
"........",
"........",
"........",
"........",
"........",
"........",
"........",
"........",
"........",
"........",
"........",
"........",
"........",
"........"
};
