/* XPM */
static char *close_pressed[] = {
/* columns rows colors chars-per-pixel */
"34 26 33 1 ",
"  c #343838",
". c #353939",
"X c #373C3C",
"o c #3A3E3E",
"O c #3A3F3F",
"+ c #3A4040",
"@ c #3B4040",
"# c #3B4141",
"$ c #3C4141",
"% c #454D4D",
"& c #474C4C",
"* c #474D4D",
"= c #474E4E",
"- c #4A5151",
"; c #4A5252",
": c #4E5757",
"> c #4F5757",
", c #4F5858",
"< c #505959",
"1 c #515959",
"2 c #555C5C",
"3 c #555D5D",
"4 c #555E5E",
"5 c #586262",
"6 c #596262",
"7 c #5A6464",
"8 c #5B6565",
"9 c #889B9B",
"0 c #899B9B",
"q c #8C9F9F",
"w c #B3CCCC",
"e c #B4CCCC",
"r c #D3F0F0",
/* pixels */
"            +&<2662,&O            ",
"          $17777777777<#          ",
"        .;77777777777777-.        ",
"       X17777777777777777,X       ",
"      .<777777777777777777,.      ",
"      ;77777777777777777777-      ",
"     #7777777777777777777777#     ",
"     <7777777777777777777777,     ",
"    o777777778777777877777777O    ",
"    &77777778e077770e87777777=    ",
"    ,777777779rq779rq77777777,    ",
"    47777777779rq9rq7777777772    ",
"    577777777770rr077777777775    ",
"    577777777770rr077777777775    ",
"    37777777779rq9rq7777777772    ",
"    ,777777779rq779rq77777777>    ",
"    &77777778w077770e87777777%    ",
"    o777777778777777877777777o    ",
"     ,7777777777777777777777>     ",
"     @7777777777777777777777#     ",
"      -77777777777777777777-      ",
"       ,777777777777777777,.      ",
"       X,7777777777777777,X       ",
"        .-77777777777777-.        ",
"          @:7777777777,#          ",
"            o=,2552>*o            "
};
