/* XPM */
static char *hide_pressed[] = {
/* columns rows colors chars-per-pixel */
"34 34 29 1 ",
"  c #2C2F2F",
". c #2E3131",
"X c #2F3232",
"o c #2F3333",
"O c #303333",
"+ c #323535",
"@ c #323636",
"# c #333636",
"$ c #353939",
"% c #363939",
"& c #373939",
"* c #363A3A",
"= c #373A3A",
"- c #383C3C",
"; c #393D3D",
": c #3A3D3D",
"> c #3A3E3E",
", c #3B3E3E",
"< c #3E4242",
"1 c #3F4444",
"2 c #404343",
"3 c #404444",
"4 c #434646",
"5 c #434747",
"6 c #464B4B",
"7 c #474B4B",
"8 c #484C4C",
"9 c #484D4D",
"0 c #EAF9F9",
/* pixels */
"           .=<468864<=.           ",
"         @18999999999983@         ",
"       O399999999999999993o       ",
"      *79999999999999999997%      ",
"     ;9999999999999999999999,     ",
"    :999999999999999999999999>    ",
"   *99999999999999999999999999%   ",
"  O7999999999999999999999999997X  ",
"  399999999999999999999999999993  ",
" #999999999999999999999999999999@ ",
" 19999999999999999999999999999993 ",
".89999999999999999999999999999998.",
"*99999999999999999999999999999999=",
"<99999999999999999999999999999999<",
"5999999999999999999999999999999994",
"6999999999999999999999999999999996",
"8999999999999999999999999999999998",
"8999999999999999999999999999999998",
"6999999999999999999999999999999996",
"5999999999999000000009999999999994",
"<99999999999999999999999999999999<",
"=99999999999999999999999999999999&",
".89999999999999999999999999999998.",
" 39999999999999999999999999999992 ",
" #999999999999999999999999999999@ ",
"  199999999999999999999999999992  ",
"  o7999999999999999999999999997X  ",
"   %99999999999999999999999999$   ",
"    >999999999999999999999999;    ",
"     -9999999999999999999999,     ",
"      %79999999999999999997$      ",
"       X399999999999999992X       ",
"         +38999999999982#         ",
"           .=<468864<=.           "
};
